# xmcd
#
# Track frame offsets:
#	150
#	11779
#	21314
#	32990
#	46248
#	58867
#	68483
#	90391
#	100258
#	112944
#	124956
#	134008
#	144777
#	157247
#	166745
#	183261
#	194361
#	205100
#	216313
#	227317
#	243147
#	254705
#	266662
#	286151
#
# Disc length: 3981 seconds
#
# Revision: 1
# Processed by: cddbd v1.5.2PL0 Copyright (c) Steve Scherf et al.
# Submitted via: audiograbber 1.83.01
#
DISCID=570f8b18
DTITLE=mac wiseman - great folk ballads (1959) mac wiseman sings 12 great hits 
DTITLE=(1960)
DYEAR=2016
DGENRE=country
TTITLE0=When it's lamp lightin' time in the valley 
TTITLE1=Little Moses
TTITLE2=The baggage coach ahead 
TTITLE3=The girl in the blue velvet band 
TTITLE4=I've got no use for the women 
TTITLE5=Jimmie Brown the newsboy
TTITLE6=Barbara Allen 
TTITLE7=The preacher and the bear 
TTITLE8=just tell them that you saw me 
TTITLE9=Wildwood flower 
TTITLE10=The wreck of the old 97 
TTITLE11=Driftwood on the river 
TTITLE12=Tom Dooley 
TTITLE13=He's got the whole world in his hands 
TTITLE14=Old shep 
TTITLE15=Sixteen tons 
TTITLE16=I'm moving on 
TTITLE17=The fool 
TTITLE18=The ballad of Davy Crockett 
TTITLE19=Darling Nellie Gray 
TTITLE20=The old lamplighter 
TTITLE21=Running bear 
TTITLE22=El Paso 
TTITLE23=The three bells 
EXTD=
EXTT0=
EXTT1=
EXTT2=
EXTT3=
EXTT4=
EXTT5=
EXTT6=
EXTT7=
EXTT8=
EXTT9=
EXTT10=
EXTT11=
EXTT12=
EXTT13=
EXTT14=
EXTT15=
EXTT16=
EXTT17=
EXTT18=
EXTT19=
EXTT20=
EXTT21=
EXTT22=
EXTT23=
PLAYORDER=
